<svg xmlns="http://www.w3.org/2000/svg" width="175" height="60" viewBox="0 0 175 60"><path fill="#000000" d="M50 34.6C49.3 38.5 45.7 41.5 41.7 41.5 33.9 41.5 30.2 31.4 36.3 26.5 42.3 21.6 51.5 27 50 34.6M17.1 24.5C19.5 24.5 21.7 25.6 23.3 27.2L8.8 31C9.8 27.2 13.2 24.5 17.1 24.5M68.4 41.5C63.7 41.5 59.9 37.7 59.9 33 59.9 28.3 63.7 24.5 68.4 24.5 71.4 24.5 74.1 26.1 75.6 28.4L84.9 28.4C82.8 21.3 76.2 16.1 68.4 16.1 64.8 16.1 61.5 17.2 58.7 19.1L58.7 5 50.2 9.4 50.2 18.3C43.4 14.4 34.7 15.8 29.4 21.3 26.2 17.9 21.7 16 17.1 16 7.6 16.1 0 23.7 0 33 0 42.4 7.6 50 17.1 50 20.9 50 24.4 48.7 27.3 46.6L22 39.9C20.6 41 18.8 41.5 17.1 41.5 14.8 41.5 12.6 40.6 11 38.9L24.8 35.3C25.4 39.4 27.3 43.2 30.6 45.9 36.6 51 45.7 51.3 52 46.6 53.1 45.7 54.2 44.7 55 43.6 58.3 47.6 63.2 50 68.4 50 76.2 50 82.8 44.8 84.9 37.6L75.6 37.6C74 40 71.3 41.5 68.4 41.5"/></svg>